<?xml version="1.0" encoding="utf-8"?>
<!-- Generator: Adobe Illustrator 27.0.1, SVG Export Plug-In . SVG Version: 6.00 Build 0)  -->
<svg version="1.1" id="Layer_1" xmlns="http://www.w3.org/2000/svg" xmlns:xlink="http://www.w3.org/1999/xlink" x="0px" y="0px"
	 viewBox="0 0 590.2 408.2" style="enable-background:new 0 0 590.2 408.2;" xml:space="preserve">
<style type="text/css">
	.st0{fill:#061922;}
</style>
<g>
	<path class="st0" d="M581.6,8.4l-56.3,120.8H299.8l-71,152.4H165c0.5-7.6,2-15.2,4.5-22.7c6.1-18.4,17.6-33.5,32-44.4
		c3.8,4.3,7.2,9,10.3,14c0.5,0.8,1.4,0.7,1.8,0c0,0,0,0,0,0L316.3,8.4H581.6z"/>
	<path class="st0" d="M59.4,328.8C53,341.7,43.8,352.6,32.6,361c-9.3-10.8-16.7-23.5-21.5-37.9c-3.2-9.6-5-19.4-5.5-29h63.4
		C68.1,306,64.9,317.8,59.4,328.8"/>
	<path class="st0" d="M110.7,294v105.4c-25.9-1.5-50.5-12-69.4-29.4c12.1-9.4,22.1-21.4,29.1-35.5c6.4-12.8,10.1-26.5,10.9-40.4
		H110.7z"/>
	<path class="st0" d="M64.4,258.9c2.5,7.4,4,15.1,4.5,22.7H5.6c1.4-24.8,11-48.3,27-66.8C47,225.5,58.3,240.6,64.4,258.9"/>
	<path class="st0" d="M110.7,176.2v105.4H81.4c-0.5-8.9-2.2-17.9-5.1-26.6c-6.7-20.3-19.2-37.1-34.9-49.3c11.3-10.5,25-18.8,40.6-24
		C91.5,178.6,101.1,176.8,110.7,176.2"/>
	<path class="st0" d="M152.5,281.6h-29.3V176.2c25.9,1.4,50.6,11.9,69.5,29.3c-16.3,12.5-28.4,29.5-35,49.5
		C154.8,263.7,153,272.7,152.5,281.6"/>
	<path class="st0" d="M192.7,370.1c-11.3,10.4-24.9,18.6-40.3,23.7c-9.7,3.2-19.5,5-29.2,5.5V294h29.3c0.9,13.9,4.5,27.6,10.9,40.4
		C170.5,348.6,180.5,360.7,192.7,370.1"/>
	<path class="st0" d="M228.7,294c-1.4,24.8-11.1,48.5-27.2,67.1c-11.3-8.4-20.5-19.4-27-32.3c-5.5-11-8.7-22.8-9.5-34.8H228.7z"/>
</g>
</svg>
